<?xml version="1.0" encoding="utf-8"?>
<!-- Generator: Adobe Illustrator 24.1.0, SVG Export Plug-In . SVG Version: 6.00 Build 0)  -->
<svg version="1.1" id="Layer_1" xmlns="http://www.w3.org/2000/svg" xmlns:xlink="http://www.w3.org/1999/xlink" x="0px" y="0px"
	 viewBox="0 0 157 129" style="enable-background:new 0 0 157 129;" xml:space="preserve">
<style type="text/css">
	.st0{opacity:0.3;}
	.st1{fill-rule:evenodd;clip-rule:evenodd;fill:#058E59;}
	.st2{fill:#09BA76;}
	.st3{fill:#058E59;}
	.st4{enable-background:new    ;}
	.st5{fill:#FFFFFF;}
</style>
<g id="Oval" class="st0">
	<circle class="st1" cx="79.3" cy="72.9" r="55.6"/>
</g>
<path class="st2" d="M118.8,38.8l-8.2,6.9c-3.4,2.8-8.4,2.4-11.3-1L99,44.3c-2.8-3.4-2.4-8.4,1-11.3l8.2-6.8
	c-7.7-6.7-17.4-11.3-28-12.7V24c0,4.4-3.6,8-8,8h-0.5c-4.4,0-8-3.6-8-8v-5.6v-4.7c-9.9,1.7-18.8,6.2-26.1,12.6l8,6.7
	c3.4,2.8,3.8,7.9,1,11.3l-0.3,0.4c-2.8,3.4-7.9,3.8-11.3,1L27,39c-4.8,8-7.6,17.5-7.6,27.5c0,11.1,3.4,21.5,9.3,30.1l6.3-5.3
	c3.4-2.8,8.4-2.4,11.3,1l0.3,0.4c2.8,3.4,2.4,8.4-1,11.3l-5.6,4.7c9.1,7.2,20.6,11.5,33.1,11.5c12.4,0,23.8-4.2,32.9-11.3L100,104
	c-3.4-2.8-3.8-7.9-1-11.3l0.3-0.4c2.8-3.4,7.9-3.8,11.3-1l6.5,5.5c5.9-8.6,9.4-19.1,9.4-30.3C126.6,56.4,123.7,46.9,118.8,38.8z"/>
<path class="st3" d="M121.9,36.2c-2.9-4.7-6.5-9-10.6-12.6C102.8,15.9,92,10.8,80.1,9.4c-2.4-0.3-4.8-0.5-7.2-0.5
	c-3.2,0-6.3,0.3-9.3,0.8c-11.1,1.8-21.2,6.8-29.2,14c-4.1,3.7-7.7,8-10.6,12.7c-5.4,8.8-8.5,19.1-8.5,30.1
	c0,12.1,3.8,23.4,10.2,32.6c3.2,4.6,6.9,8.7,11.2,12.1c9.9,8,22.5,12.8,36.2,12.8c13.6,0,26.1-4.8,36-12.7
	c4.3-3.5,8.1-7.5,11.3-12.1c6.5-9.3,10.3-20.7,10.3-32.9C130.6,55.4,127.4,45,121.9,36.2z M117.2,96.8l-6.5-5.5
	c-3.4-2.8-8.4-2.4-11.3,1L99,92.7c-2.8,3.4-2.4,8.4,1,11.3l5.8,4.9c-9.1,7.1-20.5,11.3-32.9,11.3c-12.5,0-23.9-4.3-33.1-11.5
	l5.6-4.7c3.4-2.8,3.8-7.9,1-11.3l-0.3-0.4c-2.8-3.4-7.9-3.8-11.3-1l-6.3,5.3c-5.8-8.6-9.3-18.9-9.3-30.1C19.3,56.5,22.1,47,27,39
	l7.9,6.6c3.4,2.8,8.4,2.4,11.3-1l0.3-0.4c2.8-3.4,2.4-8.4-1-11.3l-8-6.7c7.2-6.4,16.2-10.8,26.1-12.6v4.7V24c0,4.4,3.6,8,8,8h0.5
	c4.4,0,8-3.6,8-8V13.4c10.6,1.4,20.3,6,28,12.7L100,33c-3.4,2.8-3.8,7.9-1,11.3l0.3,0.4c2.8,3.4,7.9,3.8,11.3,1l8.2-6.9
	c4.9,8.1,7.8,17.6,7.8,27.7C126.6,77.7,123.1,88.2,117.2,96.8z"/>
<g id="Group-10" transform="translate(47.245763, 43.533898)">
	<g id="Rectangle">
		<path class="st1" d="M8,2h36c3.3,0,6,2.7,6,6v33c0,3.3-2.7,6-6,6H8c-3.3,0-6-2.7-6-6V8C2,4.7,4.7,2,8,2z"/>
	</g>
	<g class="st4">
		<path class="st5" d="M15.7,13.9c0,0.8-0.1,1.5-0.3,2.2c-0.2,0.7-0.5,1.3-0.9,1.8c-0.4,0.5-0.9,1-1.4,1.3c-0.6,0.3-1.3,0.5-2,0.5
			c-0.8,0-1.4-0.2-2-0.5s-1-0.7-1.4-1.3S7,16.8,6.8,16.1s-0.3-1.4-0.3-2.2v-1.6c0-0.5,0-1,0.1-1.5s0.2-0.9,0.4-1.4s0.4-0.8,0.6-1.2
			c0.2-0.4,0.5-0.7,0.9-0.9s0.7-0.5,1.1-0.6s0.9-0.2,1.4-0.2c0.8,0,1.4,0.2,2,0.5s1.1,0.7,1.4,1.3c0.4,0.5,0.7,1.1,0.9,1.8
			s0.3,1.4,0.3,2.2V13.9z M13.6,12.2c0-0.5,0-1-0.1-1.4s-0.2-0.9-0.4-1.3c-0.2-0.4-0.4-0.7-0.8-0.9s-0.7-0.3-1.2-0.3
			c-0.5,0-0.9,0.1-1.2,0.3S9.4,9.2,9.2,9.5s-0.3,0.8-0.4,1.3s-0.1,0.9-0.1,1.4v1.7c0,0.5,0,1,0.1,1.4c0.1,0.5,0.2,0.9,0.4,1.3
			c0.2,0.4,0.4,0.7,0.7,0.9s0.7,0.4,1.2,0.4c0.5,0,0.9-0.1,1.2-0.4s0.6-0.5,0.8-0.9s0.3-0.8,0.4-1.3s0.1-1,0.1-1.4V12.2z"/>
		<path class="st5" d="M19.8,10l0.1,1.3c0.3-0.5,0.8-0.8,1.3-1.1c0.5-0.3,1-0.4,1.6-0.4c0.5,0,0.9,0.1,1.3,0.2s0.7,0.4,1,0.7
			s0.5,0.7,0.7,1.2s0.2,1,0.2,1.7v5.9H24v-5.9c0-0.4,0-0.7-0.1-1s-0.2-0.5-0.4-0.6s-0.4-0.3-0.6-0.3s-0.5-0.1-0.8-0.1
			c-0.5,0-0.9,0.1-1.2,0.3s-0.6,0.5-0.8,0.8v6.8h-2.1V10H19.8z"/>
	</g>
	<g class="st4">
		<path class="st5" d="M13.2,40.5c-0.1-0.1-0.1-0.3-0.1-0.4s-0.1-0.3-0.1-0.5c-0.1,0.2-0.3,0.3-0.5,0.4c-0.2,0.1-0.4,0.2-0.6,0.3
			s-0.5,0.2-0.7,0.2s-0.5,0.1-0.8,0.1c-0.5,0-1-0.1-1.4-0.2c-0.4-0.1-0.8-0.3-1-0.6c-0.3-0.3-0.5-0.6-0.7-0.9s-0.2-0.7-0.2-1.1
			c0-1,0.4-1.8,1.1-2.3s1.8-0.8,3.3-0.8h1.5V34c0-0.5-0.2-0.9-0.5-1.2s-0.8-0.4-1.4-0.4c-0.3,0-0.5,0-0.7,0.1
			c-0.2,0.1-0.4,0.2-0.5,0.3S9.4,33,9.3,33.2s-0.1,0.3-0.1,0.5H7.1c0-0.4,0.1-0.7,0.3-1.1c0.2-0.3,0.4-0.7,0.8-0.9
			c0.3-0.3,0.7-0.5,1.2-0.7s1-0.2,1.7-0.2c0.6,0,1.1,0.1,1.6,0.2s0.9,0.3,1.2,0.6c0.4,0.3,0.6,0.6,0.8,1s0.3,0.9,0.3,1.4v4.2
			c0,0.4,0,0.8,0.1,1.1c0.1,0.3,0.2,0.6,0.3,0.9v0.1H13.2z M10.6,38.9c0.3,0,0.5,0,0.8-0.1s0.5-0.2,0.6-0.3s0.4-0.2,0.5-0.4
			s0.2-0.3,0.3-0.4V36h-1.3c-0.9,0-1.5,0.1-1.9,0.4S9,37.1,9,37.6c0,0.2,0,0.4,0.1,0.5c0.1,0.2,0.2,0.3,0.3,0.4
			c0.1,0.1,0.3,0.2,0.5,0.3S10.4,38.9,10.6,38.9z"/>
		<path class="st5" d="M18.4,31h5.1v7.8h2.8v1.7h-7.9v-1.7h3v-6h-3V31z M21.2,28.5c0-0.3,0.1-0.6,0.3-0.8s0.5-0.3,0.9-0.3
			c0.4,0,0.7,0.1,0.9,0.3s0.3,0.5,0.3,0.8s-0.1,0.6-0.3,0.8c-0.2,0.2-0.5,0.3-0.9,0.3c-0.4,0-0.7-0.1-0.9-0.3
			C21.3,29.1,21.2,28.8,21.2,28.5z"/>
		<path class="st5" d="M35.3,30.8c0.2,0,0.3,0,0.5,0s0.3,0,0.5,0.1c0.2,0,0.3,0,0.4,0.1c0.1,0,0.2,0.1,0.3,0.1l-0.3,2.1
			c-0.6-0.1-1.3-0.2-1.9-0.2c-0.7,0-1.3,0.1-1.7,0.4c-0.4,0.3-0.7,0.7-1,1.2v5.9H30V31h2l0.1,1.5c0.4-0.5,0.8-0.9,1.4-1.2
			C34,30.9,34.6,30.8,35.3,30.8z"/>
		<path class="st5" d="M42.2,39.4c0-0.3,0.1-0.6,0.3-0.8c0.2-0.2,0.5-0.3,0.9-0.3s0.7,0.1,0.9,0.3c0.2,0.2,0.3,0.5,0.3,0.8
			c0,0.3-0.1,0.6-0.3,0.8c-0.2,0.2-0.5,0.3-0.9,0.3s-0.7-0.1-0.9-0.3C42.3,40,42.2,39.8,42.2,39.4z M44.5,36.1h-2l-0.1-8.5h2.1
			L44.5,36.1z"/>
	</g>
</g>
<g id="Oval-2">
</g>
<g>
	<path class="st3" d="M154,35.1h-5.5v-5.6c0-1.1-0.9-2-2-2s-2,0.9-2,2v5.6h-5.2c-1.1,0-2,0.9-2,2s0.9,2,2,2h5.2v5.3c0,1.1,0.9,2,2,2
		s2-0.9,2-2v-5.3h5.5c1.1,0,2-0.9,2-2S155.1,35.1,154,35.1z"/>
</g>
<g>
	<path class="st3" d="M139.4,11.1h-8.5V2.2c0-1.1-0.9-2-2-2s-2,0.9-2,2v8.9h-8.5c-1.1,0-2,0.9-2,2s0.9,2,2,2h8.5v8.3
		c0,1.1,0.9,2,2,2s2-0.9,2-2v-8.3h8.5c1.1,0,2-0.9,2-2S140.5,11.1,139.4,11.1z"/>
</g>
<g>
	<path class="st3" d="M16.6,104.2h-5.5v-5.6c0-1.1-0.9-2-2-2s-2,0.9-2,2v5.6H2c-1.1,0-2,0.9-2,2s0.9,2,2,2h5.2v5.3c0,1.1,0.9,2,2,2
		s2-0.9,2-2v-5.3h5.5c1.1,0,2-0.9,2-2S17.7,104.2,16.6,104.2z"/>
</g>
</svg>
