<?xml version="1.0" encoding="utf-8"?>
<!-- Generator: Adobe Illustrator 24.1.0, SVG Export Plug-In . SVG Version: 6.00 Build 0)  -->
<svg version="1.1" id="Layer_1" xmlns="http://www.w3.org/2000/svg" xmlns:xlink="http://www.w3.org/1999/xlink" x="0px" y="0px"
	 viewBox="0 0 157 129" style="enable-background:new 0 0 157 129;" xml:space="preserve">
<style type="text/css">
	.st0{opacity:0.3;}
	.st1{fill-rule:evenodd;clip-rule:evenodd;fill:#058E59;}
	.st2{fill:#09BA76;}
	.st3{fill:#058E59;}
	.st4{fill:#FFFFFF;}
</style>
<g id="Oval-2">
</g>
<g>
	<g id="Oval" class="st0">
		<circle class="st1" cx="79.3" cy="72.9" r="55.6"/>
	</g>
	<g>
		<path class="st2" d="M72.1,31.9h-0.5c-4.4,0-8-3.6-8-8V13.7c-9.9,1.7-18.8,6.2-26,12.6l7.9,6.6c3.4,2.9,3.8,7.9,1,11.3l-0.3,0.4
			c-2.8,3.4-7.9,3.8-11.3,1L27,39c-4.8,8-7.6,17.5-7.6,27.5c0,11.1,3.4,21.5,9.2,30l6.3-5.3c3.4-2.8,8.4-2.4,11.3,1l0.3,0.4
			c2.8,3.4,2.4,8.4-1,11.3l-5.6,4.7c9.1,7.2,20.6,11.5,33.1,11.5c12.4,0,23.8-4.2,32.8-11.3l-5.8-4.9c-3.4-2.8-3.8-7.9-1-11.3
			l0.3-0.4c2.8-3.4,7.9-3.8,11.3-1l6.6,5.5c5.9-8.6,9.4-19.1,9.4-30.3c0-10.2-2.8-19.7-7.8-27.7l-8.2,6.9c-3.4,2.8-8.4,2.4-11.3-1
			L99,44.2c-2.8-3.4-2.4-8.4,1-11.3l8.1-6.8c-7.7-6.7-17.4-11.3-28-12.7v10.5C80.1,28.3,76.5,31.9,72.1,31.9z M97.2,51.5v33
			c0,3.3-2.7,6-6,6h-36c-3.3,0-6-2.7-6-6v-33c0-3.3,2.7-6,6-6h36C94.5,45.5,97.2,48.2,97.2,51.5z"/>
		<path class="st3" d="M17.4,66.5c0-10.5,2.9-20.4,8-28.8l-1.5-1.3c-5.4,8.8-8.5,19.1-8.5,30.1c0,12.1,3.8,23.3,10.1,32.6l1.5-1.3
			C21,88.9,17.4,78.1,17.4,66.5z"/>
		<path class="st3" d="M128.6,66.5c0,11.7-3.6,22.6-9.8,31.6l1.5,1.3c6.5-9.3,10.3-20.6,10.3-32.8c0-11.1-3.2-21.5-8.7-30.4
			l-1.5,1.3C125.6,45.9,128.6,55.8,128.6,66.5z"/>
		<path class="st3" d="M73,122.1c-13.1,0-25.1-4.5-34.6-12.1l-1.6,1.3c9.9,8,22.5,12.8,36.2,12.8c13.6,0,26.1-4.7,36-12.7l-1.5-1.3
			C97.9,117.6,86,122.1,73,122.1z"/>
		<path class="st3" d="M109.7,24.8l1.5-1.3C102.8,15.9,92,10.8,80.1,9.4v2C91.4,12.8,101.6,17.6,109.7,24.8z"/>
		<path class="st3" d="M63.6,11.7v-2c-11.1,1.8-21.2,6.8-29.2,14L36,25C43.7,18.2,53.1,13.5,63.6,11.7z"/>
		<path class="st3" d="M19.4,66.5c0-10,2.8-19.4,7.6-27.5l-1.6-1.3c-5.1,8.4-8,18.3-8,28.8c0,11.6,3.6,22.4,9.7,31.3l1.6-1.3
			C22.8,88,19.4,77.6,19.4,66.5z"/>
		<path class="st3" d="M126.6,66.5c0,11.2-3.5,21.6-9.4,30.3l1.6,1.3c6.2-9,9.8-19.8,9.8-31.6c0-10.7-3-20.6-8.2-29.1l-1.6,1.3
			C123.8,46.8,126.6,56.3,126.6,66.5z"/>
		<path class="st3" d="M73,120.1c-12.5,0-23.9-4.3-33.1-11.5l-1.6,1.3c9.5,7.6,21.5,12.1,34.6,12.1c13,0,24.9-4.5,34.4-11.9
			l-1.6-1.3C96.8,115.9,85.4,120.1,73,120.1z"/>
		<path class="st3" d="M63.6,13.7v-2C53.1,13.5,43.7,18.2,36,25l1.6,1.3C44.8,19.9,53.8,15.5,63.6,13.7z"/>
		<path class="st3" d="M80.1,13.4c10.6,1.4,20.3,6,28,12.7l1.6-1.3c-8.1-7.2-18.3-12-29.6-13.4V13.4z"/>
		<path class="st3" d="M49.2,51.5v33c0,3.3,2.7,6,6,6h36c3.3,0,6-2.7,6-6v-33c0-3.3-2.7-6-6-6h-36C51.9,45.5,49.2,48.2,49.2,51.5z
			 M62.6,83.8h-2.2V84c-0.1-0.1-0.1-0.3-0.1-0.4c0-0.1-0.1-0.3-0.1-0.5c-0.1,0.2-0.3,0.3-0.5,0.4c-0.2,0.1-0.4,0.2-0.6,0.3
			c-0.2,0.1-0.5,0.2-0.7,0.2c-0.2,0-0.5,0.1-0.8,0.1c-0.5,0-1-0.1-1.4-0.2c-0.4-0.1-0.8-0.3-1-0.6c-0.3-0.3-0.5-0.6-0.7-0.9
			s-0.2-0.7-0.2-1.1c0-1,0.4-1.8,1.1-2.3c0.7-0.5,1.8-0.8,3.3-0.8h1.5v-0.7c0-0.5-0.2-0.9-0.5-1.2c-0.3-0.3-0.8-0.4-1.4-0.4
			c-0.3,0-0.5,0-0.7,0.1c-0.2,0.1-0.4,0.2-0.5,0.3c-0.1,0.1-0.5,0.2-0.6,0.4c-0.1,0.2-0.1,0.3-0.1,0.5h-2.1c0-0.4,0.1-0.7,0.3-1.1
			c0.2-0.3,0.4-0.7,0.8-0.9c0.3-0.3,0.7-0.5,1.2-0.7c0.5-0.2,1-0.2,1.7-0.2c0.6,0,1.1,0.1,1.6,0.2c0.5,0.1,0.9,0.3,1.2,0.6
			c0.4,0.3,0.6,0.6,0.8,1c0.2,0.4,0.3,0.9,0.3,1.4v4.2c0,0.4,0,0.8,0.1,1.1c0.1,0.3,0.2,0.6,0.3,0.9V83.8z M91.7,71.1v8.5h-2
			l-0.1-8.5H91.7z M89.7,82.1c0.2-0.2,0.5-0.3,0.9-0.3c0.4,0,0.7,0.1,0.9,0.3s0.3,0.5,0.3,0.8s-0.1,0.6-0.3,0.8S91,84,90.6,84
			c-0.4,0-0.7-0.1-0.9-0.3c-0.2-0.2-0.3-0.4-0.3-0.8C89.4,82.6,89.5,82.3,89.7,82.1z M77.2,74.5h2l0.1,1.5c0.4-0.5,0.8-0.9,1.4-1.2
			c0.5-0.4,1.1-0.5,1.8-0.5c0.2,0,0.3,0,0.5,0s0.3,0,0.5,0.1c0.2,0,0.3,0,0.4,0.1c0.1,0,0.2,0.1,0.3,0.1l-0.3,2.1
			c-0.6-0.1-1.3-0.2-1.9-0.2c-0.7,0-1.3,0.1-1.7,0.4s-0.7,0.7-1,1.2V84h-2.1V74.5z M73.5,84h-7.9v-1.7h3v-6h-3v-1.8h5.1v7.8h2.8V84z
			 M68.4,72c0-0.3,0.1-0.6,0.3-0.8c0.2-0.2,0.5-0.3,0.9-0.3c0.4,0,0.7,0.1,0.9,0.3s0.3,0.5,0.3,0.8c0,0.3-0.1,0.6-0.3,0.8
			c-0.2,0.2-0.5,0.3-0.9,0.3c-0.4,0-0.7-0.1-0.9-0.3C68.5,72.6,68.4,72.3,68.4,72z M65.2,53.5H67l0.1,1.3c0.3-0.5,0.8-0.8,1.3-1.1
			s1-0.4,1.6-0.4c0.5,0,0.9,0.1,1.3,0.2c0.4,0.1,0.7,0.4,1,0.7s0.5,0.7,0.7,1.2s0.2,1,0.2,1.7V63h-2v-5.9c0-0.4,0-0.7-0.1-1
			c-0.1-0.3-0.2-0.5-0.4-0.6c-0.2-0.1-0.4-0.3-0.6-0.3s-0.5-0.1-0.8-0.1c-0.5,0-0.9,0.1-1.2,0.3s-0.6,0.5-0.8,0.8V63h-2.1V53.5z
			 M56.8,50.2c0.4-0.1,0.9-0.2,1.4-0.2c0.8,0,1.4,0.2,2,0.5c0.6,0.3,1.1,0.7,1.4,1.3c0.4,0.5,0.7,1.1,0.9,1.8s0.3,1.4,0.3,2.2v1.6
			h0.1c0,0.8-0.1,1.5-0.3,2.2s-0.5,1.3-0.9,1.8c-0.4,0.5-0.9,1-1.4,1.3c-0.6,0.3-1.3,0.5-2,0.5c-0.8,0-1.4-0.2-2-0.5s-1-0.7-1.4-1.3
			c-0.4-0.6-0.7-1.1-0.9-1.8s-0.3-1.4-0.3-2.2v-1.6c0-0.5,0-1,0.1-1.5s0.2-0.9,0.4-1.4c0.2-0.5,0.4-0.8,0.6-1.2
			c0.2-0.4,0.5-0.7,0.9-0.9C56.1,50.6,56.4,50.3,56.8,50.2z"/>
		<path class="st3" d="M56.4,60.1c0.2,0.4,0.4,0.7,0.7,0.9c0.3,0.2,0.7,0.4,1.2,0.4s0.9-0.1,1.2-0.4c0.3-0.3,0.6-0.5,0.8-0.9
			c0.2-0.4,0.3-0.8,0.4-1.3c0.1-0.5,0.1-1,0.1-1.4v-1.7c0-0.5,0-1-0.1-1.4c-0.1-0.4-0.2-0.9-0.4-1.3c-0.2-0.4-0.4-0.7-0.8-0.9
			c-0.4-0.2-0.7-0.3-1.2-0.3s-0.9,0.1-1.2,0.3s-0.5,0.6-0.7,0.9c-0.2,0.3-0.3,0.8-0.4,1.3c-0.1,0.5-0.1,0.9-0.1,1.4v1.7
			c0,0.5,0,1,0.1,1.4C56.1,59.3,56.2,59.7,56.4,60.1z"/>
		<path class="st3" d="M56.8,79.9c-0.4,0.3-0.6,0.7-0.6,1.2c0,0.2,0,0.4,0.1,0.5c0.1,0.2,0.2,0.3,0.3,0.4c0.1,0.1,0.3,0.2,0.5,0.3
			c0.2,0.1,0.5,0.1,0.7,0.1c0.3,0,0.5,0,0.8-0.1c0.3-0.1,0.5-0.2,0.6-0.3c0.1-0.1,0.4-0.2,0.5-0.4c0.1-0.2,0.2-0.3,0.3-0.4v-1.7
			h-1.3C57.8,79.5,57.2,79.6,56.8,79.9z"/>
		<path class="st4" d="M54.8,51.7c-0.2,0.4-0.4,0.7-0.6,1.2c-0.2,0.5-0.3,0.9-0.4,1.4s-0.1,1-0.1,1.5v1.6c0,0.8,0.1,1.5,0.3,2.2
			s0.5,1.2,0.9,1.8c0.4,0.6,0.8,1,1.4,1.3s1.2,0.5,2,0.5c0.7,0,1.4-0.2,2-0.5c0.5-0.3,1-0.8,1.4-1.3c0.4-0.5,0.7-1.1,0.9-1.8
			s0.3-1.4,0.3-2.2h-0.1v-1.6c0-0.8-0.1-1.5-0.3-2.2s-0.5-1.3-0.9-1.8c-0.3-0.6-0.8-1-1.4-1.3c-0.6-0.3-1.2-0.5-2-0.5
			c-0.5,0-1,0.1-1.4,0.2c-0.4,0.1-0.7,0.4-1.1,0.6C55.3,51,55,51.3,54.8,51.7z M55.9,55.7c0-0.5,0-0.9,0.1-1.4
			c0.1-0.5,0.2-1,0.4-1.3c0.2-0.3,0.4-0.7,0.7-0.9s0.7-0.3,1.2-0.3s0.8,0.1,1.2,0.3c0.4,0.2,0.6,0.5,0.8,0.9
			c0.2,0.4,0.3,0.9,0.4,1.3c0.1,0.4,0.1,0.9,0.1,1.4v1.7c0,0.4,0,0.9-0.1,1.4c-0.1,0.5-0.2,0.9-0.4,1.3c-0.2,0.4-0.5,0.6-0.8,0.9
			c-0.3,0.3-0.7,0.4-1.2,0.4s-0.9-0.2-1.2-0.4c-0.3-0.2-0.5-0.5-0.7-0.9c-0.2-0.4-0.3-0.8-0.4-1.3c-0.1-0.4-0.1-0.9-0.1-1.4V55.7z"
			/>
		<path class="st4" d="M67.3,56.2c0.2-0.3,0.5-0.6,0.8-0.8s0.7-0.3,1.2-0.3c0.3,0,0.6,0.1,0.8,0.1s0.4,0.2,0.6,0.3
			c0.2,0.1,0.3,0.3,0.4,0.6c0.1,0.3,0.1,0.6,0.1,1V63h2v-5.9c0-0.7,0-1.2-0.2-1.7s-0.4-0.9-0.7-1.2s-0.6-0.6-1-0.7
			c-0.4-0.1-0.8-0.2-1.3-0.2c-0.6,0-1.1,0.1-1.6,0.4s-1,0.6-1.3,1.1L67,53.5h-1.8V63h2.1V56.2z"/>
		<path class="st4" d="M62.2,81.7v-4.2c0-0.5-0.1-1-0.3-1.4c-0.2-0.4-0.4-0.7-0.8-1c-0.3-0.3-0.7-0.5-1.2-0.6
			c-0.5-0.1-1-0.2-1.6-0.2c-0.7,0-1.2,0-1.7,0.2c-0.5,0.2-0.9,0.4-1.2,0.7c-0.4,0.2-0.6,0.6-0.8,0.9c-0.2,0.4-0.3,0.7-0.3,1.1h2.1
			c0-0.2,0-0.3,0.1-0.5c0.1-0.2,0.5-0.3,0.6-0.4c0.1-0.1,0.3-0.2,0.5-0.3c0.2-0.1,0.4-0.1,0.7-0.1c0.6,0,1.1,0.1,1.4,0.4
			c0.3,0.3,0.5,0.7,0.5,1.2v0.7h-1.5c-1.5,0-2.6,0.3-3.3,0.8c-0.7,0.5-1.1,1.3-1.1,2.3c0,0.4,0,0.8,0.2,1.1s0.4,0.6,0.7,0.9
			c0.2,0.3,0.6,0.5,1,0.6c0.4,0.1,0.9,0.2,1.4,0.2c0.3,0,0.6-0.1,0.8-0.1c0.2,0,0.5-0.1,0.7-0.2c0.2-0.1,0.4-0.2,0.6-0.3
			c0.2-0.1,0.4-0.2,0.5-0.4c0,0.2,0.1,0.4,0.1,0.5c0,0.1,0,0.3,0.1,0.4v-0.2h2.2v-0.1c-0.1-0.3-0.2-0.6-0.3-0.9
			C62.2,82.5,62.2,82.1,62.2,81.7z M60,81.2c-0.1,0.1-0.2,0.2-0.3,0.4c-0.1,0.2-0.4,0.3-0.5,0.4c-0.1,0.1-0.3,0.2-0.6,0.3
			c-0.3,0.1-0.5,0.1-0.8,0.1c-0.2,0-0.5,0-0.7-0.1c-0.2-0.1-0.4-0.2-0.5-0.3c-0.1-0.1-0.2-0.2-0.3-0.4c-0.1-0.1-0.1-0.3-0.1-0.5
			c0-0.5,0.2-0.9,0.6-1.2s1-0.4,1.9-0.4H60V81.2z"/>
		<path class="st4" d="M70.5,72.8c0.2-0.2,0.3-0.5,0.3-0.8c0-0.3-0.1-0.6-0.3-0.8s-0.5-0.3-0.9-0.3c-0.4,0-0.7,0.1-0.9,0.3
			c-0.2,0.2-0.3,0.5-0.3,0.8c0,0.3,0.1,0.6,0.3,0.8c0.2,0.2,0.5,0.3,0.9,0.3C70,73.1,70.3,73,70.5,72.8z"/>
		<polygon class="st4" points="70.7,74.5 65.6,74.5 65.6,76.3 68.6,76.3 68.6,82.3 65.6,82.3 65.6,84 73.5,84 73.5,82.3 70.7,82.3 
					"/>
		<path class="st4" d="M79.3,78.1c0.3-0.5,0.6-0.9,1-1.2s1-0.4,1.7-0.4c0.6,0,1.3,0.1,1.9,0.2l0.3-2.1c-0.1,0-0.2-0.1-0.3-0.1
			c-0.1-0.1-0.2-0.1-0.4-0.1c-0.2-0.1-0.3-0.1-0.5-0.1s-0.3,0-0.5,0c-0.7,0-1.3,0.1-1.8,0.5c-0.6,0.3-1,0.7-1.4,1.2l-0.1-1.5h-2V84
			h2.1V78.1z"/>
		<polygon class="st4" points="91.7,79.6 91.7,71.1 89.6,71.1 89.7,79.6 		"/>
		<path class="st4" d="M90.6,84c0.4,0,0.7-0.1,0.9-0.3s0.3-0.5,0.3-0.8s-0.1-0.6-0.3-0.8s-0.5-0.3-0.9-0.3c-0.4,0-0.7,0.1-0.9,0.3
			c-0.2,0.2-0.3,0.5-0.3,0.8c0,0.4,0.1,0.6,0.3,0.8C89.9,83.9,90.2,84,90.6,84z"/>
		<path class="st3" d="M63.6,13.7v10.2c0,4.4,3.6,8,8,8h0.5c4.4,0,8-3.6,8-8V13.4c-2.3-0.3-4.7-0.5-7.1-0.5
			C69.8,12.9,66.7,13.2,63.6,13.7z"/>
		<path class="st3" d="M73,10.9c2.4,0,4.8,0.2,7.1,0.5v-2c-2.3-0.3-4.7-0.5-7.1-0.5c-3.2,0-6.3,0.3-9.4,0.8v2
			C66.7,11.2,69.8,10.9,73,10.9z"/>
		<path class="st3" d="M73,12.9c2.4,0,4.8,0.2,7.1,0.5v-2c-2.3-0.3-4.7-0.5-7.1-0.5c-3.2,0-6.3,0.3-9.4,0.8v2
			C66.7,13.2,69.8,12.9,73,12.9z"/>
		<path class="st3" d="M99.3,92.2L99,92.6c-2.8,3.4-2.4,8.5,1,11.3l5.8,4.9c4.4-3.4,8.2-7.5,11.4-12.1l-6.6-5.5
			C107.2,88.4,102.1,88.8,99.3,92.2z"/>
		<path class="st3" d="M107.4,110.2l1.5,1.3c4.3-3.5,8.1-7.5,11.3-12.1l-1.5-1.3C115.6,102.6,111.8,106.7,107.4,110.2z"/>
		<path class="st3" d="M105.8,108.8l1.6,1.3c4.4-3.4,8.2-7.5,11.3-12.1l-1.6-1.3C114.1,101.3,110.2,105.4,105.8,108.8z"/>
		<path class="st3" d="M46.5,92.6l-0.3-0.4c-2.9-3.4-7.9-3.8-11.3-1l-6.3,5.3c3.1,4.6,7,8.7,11.3,12.1l5.6-4.7
			C48.9,101,49.3,96,46.5,92.6z"/>
		<path class="st3" d="M27.1,97.8l-1.5,1.3c3.2,4.6,6.9,8.7,11.3,12.2l1.6-1.3C34,106.5,30.2,102.4,27.1,97.8z"/>
		<path class="st3" d="M28.6,96.5l-1.6,1.3c3.1,4.6,6.9,8.7,11.3,12.1l1.6-1.3C35.6,105.2,31.8,101.1,28.6,96.5z"/>
		<path class="st3" d="M46.2,44.6l0.3-0.4c2.8-3.4,2.4-8.4-1-11.3l-7.9-6.6C33.5,30,29.9,34.2,27,39l7.9,6.6
			C38.3,48.4,43.4,48,46.2,44.6z"/>
		<path class="st3" d="M36,25l-1.5-1.3c-4.1,3.7-7.7,8-10.6,12.7l1.5,1.3C28.3,32.9,31.9,28.7,36,25z"/>
		<path class="st3" d="M37.6,26.3L36,25c-4.1,3.7-7.7,8-10.6,12.7L27,39C29.9,34.2,33.5,30,37.6,26.3z"/>
		<path class="st3" d="M99,44.2l0.3,0.4c2.9,3.4,7.9,3.8,11.3,1l8.2-6.9c-2.9-4.8-6.5-9-10.7-12.6l-8.1,6.8
			C96.6,35.8,96.2,40.8,99,44.2z"/>
		<path class="st3" d="M111.3,23.5l-1.5,1.3c4.1,3.7,7.8,7.9,10.7,12.7l1.5-1.3C119,31.4,115.4,27.2,111.3,23.5z"/>
		<path class="st3" d="M118.8,38.8l1.6-1.3c-2.9-4.7-6.5-9-10.7-12.7l-1.6,1.3C112.3,29.7,116,34,118.8,38.8z"/>
		<path class="st3" d="M148.6,29.5c0-1.1-0.9-2-2-2s-2,0.9-2,2v5.6h4V29.5z"/>
		<path class="st3" d="M144.6,44.4c0,1.1,0.9,2,2,2s2-0.9,2-2v-5.3h-4V44.4z"/>
		<path class="st3" d="M139.4,35.1c-1.1,0-2,0.9-2,2c0,1.1,0.9,2,2,2h5.2v-4H139.4z"/>
		<path class="st3" d="M154,35.1h-5.4v4h5.4c1.1,0,2-0.9,2-2C156,36,155.1,35.1,154,35.1z"/>
		<rect x="144.6" y="35.1" class="st3" width="4" height="4"/>
		<path class="st3" d="M130.9,16.9v-1.8h-2.6C129.3,15.5,130.2,16.1,130.9,16.9z"/>
		<path class="st3" d="M130.9,2.2c0-1.1-0.9-2-2-2c-1.1,0-2,0.9-2,2v8.9h4V2.2z"/>
		<path class="st3" d="M128.3,15.1h-1.4v8.3c0,1.1,0.9,2,2,2c1.1,0,2-0.9,2-2v-6.5C130.2,16.1,129.3,15.5,128.3,15.1z"/>
		<path class="st3" d="M139.4,15.1c1.1,0,2-0.9,2-2c0-1.1-0.9-2-2-2h-8.5v4H139.4z"/>
		<path class="st3" d="M126.9,14.6v-3.5h-8.5c-1.1,0-2,0.9-2,2c0,1.1,0.9,2,2,2h3.4C123.4,14.4,125.2,14.2,126.9,14.6z"/>
		<path class="st3" d="M126.9,14.6c-1.7-0.4-3.5-0.2-5.1,0.5h5.1V14.6z"/>
		<path class="st3" d="M128.3,15.1h2.6v-4h-4v3.5C127.4,14.7,127.9,14.9,128.3,15.1z"/>
		<path class="st3" d="M126.9,14.6v0.5h1.4C127.9,14.9,127.4,14.7,126.9,14.6z"/>
		<path class="st3" d="M11.2,98.6c0-1.1-0.9-2-2-2c-1.1,0-2,0.9-2,2v5.6h4V98.6z"/>
		<path class="st3" d="M7.2,113.5c0,1.1,0.9,2,2,2c1.1,0,2-0.9,2-2v-5.3h-4V113.5z"/>
		<path class="st3" d="M18.3,105.2c-0.4-0.6-1-1-1.7-1h-5.4v4h3.5c0.1-0.1,0.2-0.2,0.3-0.3L18.3,105.2z"/>
		<path class="st3" d="M2,104.2c-1.1,0-2,0.9-2,2c0,1.1,0.9,2,2,2h5.2v-4H2z"/>
		<path class="st3" d="M18.6,106.2c0-0.4-0.1-0.7-0.3-1l-3.3,2.8c-0.1,0.1-0.2,0.2-0.3,0.3h1.9C17.7,108.2,18.6,107.3,18.6,106.2z"
			/>
		<rect x="7.2" y="104.2" class="st3" width="4" height="4"/>
	</g>
</g>
</svg>
